<svg width="237" height="237" viewBox="0 0 237 237" fill="none" xmlns="http://www.w3.org/2000/svg">
<g clip-path="url(#clip0_15_2)">
<path d="M186.279 18.7994L176.673 151.363C176.661 151.535 176.543 151.693 176.368 151.773L41.2556 213.434C40.8792 213.605 40.4586 213.35 40.5109 212.981L57.7957 91.1896C57.8163 91.0442 57.911 90.9122 58.0519 90.8321L185.485 18.3996C185.85 18.1921 186.306 18.4219 186.279 18.7994Z" stroke="white" stroke-width="15"/>
<path d="M42.6709 211.16L90.2279 95.6607C90.9519 93.9024 92.1193 92.3618 93.6163 91.1892L185.152 19.4895" stroke="white" stroke-width="15"/>
<path d="M58.5021 91.2953L90.9542 92.3771C91.9151 92.4091 92.8464 92.7175 93.6365 93.2653L177.236 151.228" stroke="white" stroke-width="15"/>
</g>
<defs>
<clipPath id="clip0_15_2">
<rect width="237" height="237" fill="white"/>
</clipPath>
</defs>
</svg>
