<svg width="237" height="237" viewBox="0 0 237 237" fill="none" xmlns="http://www.w3.org/2000/svg">
<circle cx="118" cy="119" r="99" stroke="white" stroke-width="8"/>
<circle cx="118.5" cy="118.5" r="72" stroke="white" stroke-width="5"/>
<path d="M93.5018 90.52C102.91 87.512 111.806 86.008 120.19 86.008C128.638 86.008 135.518 87.288 140.83 89.848C142.942 95.032 143.998 100.44 143.998 106.072C143.998 113.688 142.142 120.952 138.43 127.864C134.782 134.776 129.438 140.536 122.398 145.144C115.422 149.688 107.614 152.088 98.9738 152.344L93.5018 90.52ZM126.91 112.6C126.91 107.928 126.206 103.768 124.798 100.12C123.454 96.472 121.502 93.912 118.942 92.44C117.79 92.44 116.382 92.664 114.718 93.112L109.438 144.28C115.198 141.912 119.55 137.784 122.494 131.896C125.438 125.944 126.91 119.512 126.91 112.6Z" fill="white"/>
</svg>
