<svg width="237" height="237" viewBox="0 0 237 237" fill="none" xmlns="http://www.w3.org/2000/svg">
<g clip-path="url(#clip0_4_5)">
<path d="M169.179 169.179C145.544 192.814 118.352 207.982 93.7505 213.629C69.0458 219.3 47.9886 215.233 34.8747 202.119C21.7608 189.005 17.6935 167.948 23.3645 143.243C29.0119 118.641 44.1795 91.4495 67.8145 67.8145C91.4496 44.1795 118.641 29.0118 143.243 23.3644C167.948 17.6935 189.005 21.7607 202.119 34.8746C215.233 47.9885 219.3 69.0458 213.629 93.7505C207.982 118.352 192.814 145.544 169.179 169.179Z" stroke="white" stroke-width="16"/>
<path d="M169.179 67.8145C192.814 91.4495 207.982 118.641 213.629 143.243C219.3 167.948 215.233 189.005 202.119 202.119C189.005 215.233 167.948 219.3 143.243 213.629C118.641 207.982 91.4495 192.814 67.8145 169.179C44.1795 145.544 29.0118 118.352 23.3644 93.7504C17.6935 69.0458 21.7607 47.9885 34.8746 34.8746C47.9885 21.7607 69.0458 17.6934 93.7505 23.3644C118.352 29.0118 145.544 44.1795 169.179 67.8145Z" stroke="white" stroke-width="16"/>
<circle cx="118" cy="118" r="22" stroke="white" stroke-width="13"/>
</g>
<defs>
<clipPath id="clip0_4_5">
<rect width="237" height="237" fill="white"/>
</clipPath>
</defs>
</svg>
